HIERARCHY
ROOT root
{
	OFFSET	0	13.1	24.9
	CHANNELS 6  Xposition Yposition Zposition Xrotation Yrotation Zrotation
	JOINT spine_1
	{
		OFFSET	0	9.99999	0
		CHANNELS 3  Xrotation Yrotation Zrotation
		JOINT spine_2
		{
			OFFSET	0	112	-10
			CHANNELS 3  Xrotation Yrotation Zrotation
			JOINT spine_3
			{
				OFFSET	0	206.5	19.3
				CHANNELS 3  Xrotation Yrotation Zrotation
				JOINT spine_4
				{
					OFFSET	0	110.4	14.6
					CHANNELS 3  Xrotation Yrotation Zrotation
					JOINT neck_1
					{
						OFFSET	0	71.8	-50.3
						CHANNELS 3  Xrotation Yrotation Zrotation
						JOINT neck_2
						{
							OFFSET	0	86.2	-25.8
							CHANNELS 3  Xrotation Yrotation Zrotation
							JOINT head_ee
							{
								OFFSET	0	179.8	-8.7
								CHANNELS 3  Xrotation Yrotation Zrotation
								End Site
								{
									OFFSET	1	0	0
								}
							}
						}
					}
					JOINT left_clavicle
					{
						OFFSET	-43.2	22.4	-70.8
						CHANNELS 3  Xrotation Yrotation Zrotation
						JOINT left_shoulder
						{
							OFFSET	-93.9	-5.79999	48.7
							CHANNELS 3  Xrotation Yrotation Zrotation
							JOINT left_elbow
							{
								OFFSET	-291.4	-30.8	15.2
								CHANNELS 3  Xrotation Yrotation Zrotation
								JOINT left_lowarm_twist
								{
									OFFSET	-110.7	-3.89999	13.6
									CHANNELS 3  Xrotation Yrotation Zrotation
									JOINT left_hand
									{
										OFFSET	-110.7	-3.89999	13.6
										CHANNELS 3  Xrotation Yrotation Zrotation
										JOINT left_ee
										{
											OFFSET	-80.8	-5.10001	12.1
											CHANNELS 3  Xrotation Yrotation Zrotation
											End Site
											{
												OFFSET	1	0	0
											}
										}
									}
								}
							}
						}
					}
					JOINT right_clavicle
					{
						OFFSET	43.2	22.4	-70.8
						CHANNELS 3  Xrotation Yrotation Zrotation
						JOINT right_shoulder
						{
							OFFSET	93.9	-5.79999	48.7
							CHANNELS 3  Xrotation Yrotation Zrotation
							JOINT right_elbow
							{
								OFFSET	291.4	-30.8	15.2
								CHANNELS 3  Xrotation Yrotation Zrotation
								JOINT right_lowarm_twist
								{
									OFFSET	110.7	-3.89999	13.6
									CHANNELS 3  Xrotation Yrotation Zrotation
									JOINT right_hand
									{
										OFFSET	110.7	-3.89999	13.6
										CHANNELS 3  Xrotation Yrotation Zrotation
										JOINT right_ee
										{
											OFFSET	80.8	-5.10001	12.1
											CHANNELS 3  Xrotation Yrotation Zrotation
											End Site
											{
												OFFSET	1	0	0
											}
										}
									}
								}
							}
						}
					}
				}
			}
		}
	}
	JOINT left_hip
	{
		OFFSET	-82.8	-127.5	0.300001
		CHANNELS 3  Xrotation Yrotation Zrotation
		JOINT left_knee
		{
			OFFSET	-28.2	-396.7	2.2
			CHANNELS 3  Xrotation Yrotation Zrotation
			JOINT left_ankle
			{
				OFFSET	-11.7	-411.3	35.4
				CHANNELS 3  Xrotation Yrotation Zrotation
				JOINT left_toes
				{
					OFFSET	0	-60	-88.6
					CHANNELS 3  Xrotation Yrotation Zrotation
					JOINT left_foot_ee
					{
						OFFSET	-22.5	-16.5	-42.2
						CHANNELS 3  Xrotation Yrotation Zrotation
						End Site
						{
							OFFSET	1	0	0
						}
					}
				}
			}
		}
	}
	JOINT right_hip
	{
		OFFSET	82.8	-127.5	0.300001
		CHANNELS 3  Xrotation Yrotation Zrotation
		JOINT right_knee
		{
			OFFSET	28.2	-396.7	2.2
			CHANNELS 3  Xrotation Yrotation Zrotation
			JOINT right_ankle
			{
				OFFSET	11.7	-411.3	35.4
				CHANNELS 3  Xrotation Yrotation Zrotation
				JOINT right_toes
				{
					OFFSET	0	-60	-88.6
					CHANNELS 3  Xrotation Yrotation Zrotation
					JOINT right_foot_ee
					{
						OFFSET	22.5	-16.5	-42.2
						CHANNELS 3  Xrotation Yrotation Zrotation
						End Site
						{
							OFFSET	1	0	0
						}
					}
				}
			}
		}
	}
}
MOTION
Frames: 13
Frame Time: 0.02
3268.26 765.638 -334.613 -174.806 -55.5345 -166.576 6.255 -0.723961 -2.95596 6.25971 -0.534485 -2.99599 6.28178 -0.226752 -3.0348 6.26962 -0.702986 -2.96102 -27.9471 -10.5206 5.83437 -29.1195 -22.327 -0.676376 -0.0 0.0 -0.0 6.08297 14.7163 11.6091 -33.9732 -6.7874 58.4789 2.65778 -52.7727 1.31872 5.6994 0.165658 -0.708868 0.211248 1.43127 2.00745 -0.0 0.0 -0.0 3.70212 0.433138 -7.11513 -32.9197 6.93872 -62.8886 1.15296 29.7316 -0.306053 3.63502 -0.113817 0.450272 0.467626 -3.8863 -4.7182 0.0 0.0 0.0 0.452297 -10.2289 -10.494 -13.074 0.313852 1.9775 31.0291 23.1235 -4.18072 -29.3436 0.0 0.0 -0.0 0.0 -0.0 9.56304 9.6531 -9.33139 -3.38921 -0.124632 -0.505131 12.9054 -1.92181 1.82441 -0.23011 0.0 0.0 0.0 0.0 0.0 
3270.42 770.229 -329.322 -174.405 -55.6362 -166.251 6.29502 -0.72829 -2.85101 6.29937 -0.545475 -2.89153 6.32139 -0.250355 -2.93183 6.3101 -0.710052 -2.8556 -27.8748 -10.2943 5.76273 -28.9915 -21.8782 -0.586469 -0.0 0.0 -0.0 6.0495 14.3521 11.567 -35.2156 -7.07238 58.8778 2.24578 -48.0417 1.00097 6.32463 0.179516 -0.787534 0.332345 1.51114 2.84666 -0.0 0.0 -0.0 3.81289 0.618948 -7.3204 -31.4217 7.27284 -63.1294 1.2978 32.7352 -0.381181 3.38483 -0.106901 0.419061 0.443169 -2.95159 -4.17542 0.0 0.0 0.0 0.586 -9.60788 -10.891 -13.1984 0.314657 1.99656 30.7798 23.1134 -4.15247 -29.4919 0.0 0.0 -0.0 0.0 -0.0 9.59476 9.42229 -9.54286 -3.58398 -0.130882 -0.534367 13.2916 -2.07577 1.87566 -0.220837 0.0 0.0 0.0 0.0 0.0 
3268.56 772.287 -325.439 -173.88 -56.544 -165.874 6.27674 -0.709257 -2.6935 6.28062 -0.536491 -2.73313 6.30132 -0.256437 -2.77343 6.29125 -0.691071 -2.69822 -27.7164 -10.1533 5.49116 -28.792 -21.5287 -0.723791 -0.0 0.0 -0.0 6.11763 13.5391 11.7101 -36.1524 -7.66913 59.3436 1.94635 -43.95 0.785452 6.79006 0.189274 -0.846188 0.412039 1.99447 3.57633 -0.0 0.0 -0.0 3.8567 0.948165 -7.38796 -30.5991 7.44995 -63.2341 1.41955 35.113 -0.449141 3.19733 -0.10163 0.395691 0.429076 -2.25342 -3.79599 0.0 0.0 0.0 0.625337 -9.08685 -10.7211 -13.0737 0.31385 1.97745 30.63 23.1092 -4.13548 -29.6117 0.0 0.0 -0.0 0.0 -0.0 9.7761 9.17879 -9.89239 -3.77734 -0.13699 -0.563415 13.5851 -2.22402 1.91437 -0.207344 0.0 0.0 0.0 0.0 0.0 
3269.55 772.28 -321.907 -173.927 -56.8329 -166.142 6.20225 -0.670724 -2.58935 6.20584 -0.504657 -2.62675 6.22453 -0.231944 -2.66468 6.21521 -0.649729 -2.5947 -27.7405 -10.0539 5.44612 -28.7949 -21.3189 -0.707178 -0.0 0.0 -0.0 6.17761 13.5894 11.8095 -37.0029 -7.90985 59.8689 1.74748 -40.8776 0.651274 7.11569 0.195818 -0.887269 0.457889 2.12046 3.9331 -0.0 0.0 -0.0 4.02042 0.825031 -7.71425 -29.9055 7.66996 -63.2952 1.4982 36.579 -0.495202 3.0834 -0.0983882 0.381498 0.424215 -1.74234 -3.55368 0.0 0.0 0.0 0.396796 -8.66638 -10.8398 -13.0054 0.31339 1.96698 30.523 23.1238 -4.12371 -29.6636 0.0 0.0 -0.0 0.0 -0.0 9.63678 9.13002 -9.66411 -3.94171 -0.142105 -0.588122 13.5934 -2.36244 1.91503 -0.219365 0.0 0.0 0.0 0.0 0.0 
3269.98 773.135 -315.958 -173.464 -57.1161 -165.901 6.22857 -0.657101 -2.50858 6.23193 -0.496195 -2.54527 6.24978 -0.233029 -2.58267 6.24104 -0.63786 -2.51353 -27.7536 -9.97114 5.34931 -28.7898 -21.1231 -0.747544 -0.0 0.0 -0.0 6.05545 13.6883 11.6002 -37.4087 -7.79743 60.0694 1.57929 -38.0345 0.544354 7.30303 0.199476 -0.910921 0.488115 2.3972 4.24746 -0.0 0.0 -0.0 4.03996 1.18945 -7.73363 -28.9797 7.85932 -63.0637 1.57989 38.045 -0.544723 2.99195 -0.0957667 0.370111 0.416894 -1.33996 -3.33921 0.0 0.0 0.0 0.16255 -8.35738 -11.0017 -12.3184 0.308071 1.86171 30.4401 23.0712 -4.11319 -29.7477 0.0 0.0 -0.0 0.0 -0.0 9.50827 8.99566 -9.89033 -4.23039 -0.150914 -0.631549 13.7284 -2.51164 1.93256 -0.196742 0.0 0.0 0.0 0.0 0.0 
3268.8 773.448 -312.027 -172.503 -57.4455 -164.905 6.18274 -0.752498 -2.44102 6.18586 -0.595694 -2.48392 6.20778 -0.336524 -2.53206 6.19958 -0.732073 -2.44722 -29.0855 -10.9326 3.5092 -30.37 -22.141 -3.31208 -0.0 0.0 -0.0 6.63028 11.3722 12.6713 -39.0936 -10.4203 59.7093 1.26365 -32.0443 0.362889 7.34005 0.20019 -0.915595 0.67274 6.02656 6.93139 -0.0 0.0 -0.0 3.98159 1.73136 -7.59029 -28.4448 8.07561 -63.309 1.72451 40.5028 -0.636296 2.92687 -0.09389 0.362009 0.420949 -0.989611 -3.22171 0.0 0.0 0.0 -0.302503 -8.18157 -11.4903 -10.2408 0.28431 1.54382 30.0062 23.3196 -4.06927 -30.4667 0.0 0.0 -0.0 0.0 -0.0 10.1964 8.84322 -10.4479 -4.54173 -0.160171 -0.678434 12.0838 -2.75466 1.71133 -0.923917 0.0 0.0 0.0 0.0 0.0 
3269.82 772.368 -306.571 -173.086 -56.7587 -165.658 6.24275 -0.573162 -2.35812 6.24574 -0.421992 -2.38979 6.25962 -0.175472 -2.42039 6.25187 -0.555418 -2.36236 -27.9565 -10.121 4.61177 -29.0239 -21.1121 -1.56187 -0.0 0.0 -0.0 5.99882 13.525 11.5102 -38.8372 -7.77563 60.3762 1.31191 -33.0176 0.388841 7.53053 0.203816 -0.939657 0.508043 3.10397 4.66816 -0.0 0.0 -0.0 3.99583 2.10955 -7.59775 -27.3163 8.37132 -63.0373 1.75502 40.9995 -0.65621 2.88535 -0.0926879 0.356843 0.422822 -0.680229 -3.10639 0.0 0.0 0.0 -0.193665 -7.99564 -11.4374 -11.7824 0.303045 1.77963 29.9957 23.2276 -4.06606 -29.9353 0.0 0.0 -0.0 0.0 -0.0 9.87127 8.94253 -10.3522 -4.78716 -0.167289 -0.715428 13.4737 -2.5844 1.89841 -0.280018 0.0 0.0 0.0 0.0 0.0 
3269.2 770.668 -302.668 -172.274 -56.8369 -165.1 6.21996 -0.579378 -2.33762 6.2229 -0.429498 -2.36972 6.23702 -0.184049 -2.40127 6.22941 -0.560871 -2.34212 -28.2727 -10.6523 2.79581 -29.4331 -21.4314 -3.64252 -0.0 0.0 -0.0 6.11706 10.0131 11.8096 -39.9517 -8.32309 62.4579 1.07666 -28.0724 0.269172 9.11791 0.23091 -1.14061 0.789587 4.44195 7.07517 -0.0 0.0 -0.0 3.90862 2.61251 -7.39714 -26.3459 8.81148 -63.0996 1.85633 42.5965 -0.723741 2.66329 -0.0861946 0.32922 0.416223 -0.521276 -2.99658 0.0 0.0 0.0 -0.222075 -7.28775 -11.4079 -10.5207 0.288183 1.58661 29.2868 23.6145 -3.993 -29.9553 0.0 0.0 -0.0 0.0 -0.0 10.199 8.7881 -10.4674 -5.48216 -0.186581 -0.820341 13.0235 -1.99566 1.84002 -0.261616 0.0 0.0 0.0 0.0 0.0 
3269.54 769.247 -296.47 -172.098 -56.2284 -164.84 6.21783 -0.522219 -2.27733 6.22063 -0.376288 -2.30593 6.23232 -0.137428 -2.33237 6.22508 -0.503961 -2.28144 -28.9095 -11.0035 1.47528 -30.1413 -21.5803 -5.21446 -0.0 0.0 -0.0 6.16111 7.74375 11.9305 -41.0244 -8.91411 63.647 0.838822 -22.5641 0.167342 10.1769 0.245884 -1.27505 0.98876 6.28117 9.11849 -0.0 0.0 -0.0 3.8234 3.07147 -7.20128 -25.2372 9.7135 -63.4486 1.92286 43.6027 -0.769202 2.62709 -0.0851258 0.324719 0.470016 -0.309241 -3.26829 0.0 0.0 0.0 -1.04138 -6.69314 -11.7677 -9.20454 0.268154 1.38564 29.1934 23.2926 -3.9753 -29.8602 0.0 0.0 -0.0 0.0 -0.0 10.7309 8.6451 -11.0404 -6.15791 -0.204117 -0.922561 12.0625 -1.29131 1.71283 -0.472777 0.0 0.0 0.0 0.0 0.0 
3269.65 768.003 -294.203 -171.641 -56.7385 -164.275 6.09976 -0.530285 -2.26602 6.10254 -0.385057 -2.29515 6.11464 -0.142492 -2.32284 6.10747 -0.507458 -2.27124 -28.6524 -11.3387 0.478677 -29.91 -21.8836 -6.3047 -0.0 0.0 -0.0 6.48515 6.34792 12.548 -41.6872 -9.436 65.2347 0.668212 -18.3153 0.107721 10.8994 0.254673 -1.36691 1.06249 7.21597 9.96683 -0.0 0.0 -0.0 3.85666 3.28438 -7.25473 -25.0945 9.80723 -63.1802 1.98951 44.5779 -0.815576 2.35502 -0.0770029 0.290917 0.446869 -0.206409 -3.07103 0.0 0.0 0.0 -0.813601 -6.30129 -11.8794 -8.7256 0.25972 1.31264 28.4616 24.1029 -3.90741 -30.098 0.0 0.0 -0.0 0.0 -0.0 10.7735 8.5678 -11.4548 -6.7952 -0.219548 -1.01914 12.0779 -1.55228 1.71405 -0.3511 0.0 0.0 0.0 0.0 0.0 
3270.92 763.873 -294.714 -171.668 -56.3861 -164.943 6.06361 -0.474538 -2.0316 6.06584 -0.344329 -2.05766 6.07556 -0.125414 -2.08249 6.06979 -0.452661 -2.03658 -29.3999 -11.4615 -0.238228 -30.6978 -21.8304 -7.2025 -0.0 0.0 -0.0 6.70058 5.30056 12.9678 -42.0157 -9.87481 66.346 0.492235 -13.7037 0.0591476 10.9824 0.255609 -1.37748 1.02623 10.1905 10.8531 -0.0 0.0 -0.0 3.1676 2.69975 -5.92575 -24.7304 10.9894 -63.6941 2.12764 46.4994 -0.914178 2.73261 -0.0882331 0.337841 0.517321 0.900009 -3.08408 0.0 0.0 0.0 -0.675296 -5.4778 -10.7249 -7.46885 0.234691 1.12141 28.5245 23.933 -3.91112 -30.4521 0.0 0.0 -0.0 0.0 -0.0 10.8427 8.59349 -10.8451 -7.31398 -0.231316 -1.09788 10.3728 -1.50793 1.48158 -0.841274 0.0 0.0 0.0 0.0 0.0 
3275.48 763.867 -294.668 -172.751 -56.5906 -165.208 5.94267 -0.446833 -2.16796 5.94524 -0.308008 -2.19199 5.95409 -0.070412 -2.21239 5.9475 -0.418851 -2.17354 -29.3798 -11.5906 -1.65251 -30.6368 -21.5944 -8.58951 -0.0 0.0 -0.0 7.01442 5.02517 13.5654 -42.0775 -10.2384 67.2462 0.341324 -9.59711 0.0286532 10.618 0.251388 -1.33112 1.02584 12.5499 11.7196 -0.0 0.0 -0.0 2.69325 3.10285 -4.95806 -25.0113 11.7411 -63.5954 2.1502 46.8009 -0.930582 3.22201 -0.102328 0.398765 0.552625 1.48558 -3.07767 0.0 0.0 0.0 -2.29918 -4.52615 -11.4996 -5.77527 0.194335 0.864655 28.0854 23.8906 -3.85857 -30.4426 0.0 0.0 -0.0 0.0 -0.0 10.1361 9.09737 -11.6604 -7.64254 -0.238399 -1.14781 8.92511 -1.49401 1.2814 -1.48538 0.0 0.0 0.0 0.0 0.0 
3277.83 765.666 -292.68 -172.779 -56.9784 -164.821 5.81101 -0.333222 -2.26535 5.81385 -0.188435 -2.28195 5.81827 0.0636709 -2.28883 5.81108 -0.298511 -2.27018 -29.4262 -11.5722 -2.26749 -30.6476 -21.3494 -9.15378 -0.0 0.0 -0.0 7.29193 4.59815 14.1028 -41.8741 -10.5714 67.6 0.25236 -7.12584 0.0157132 10.3521 0.248122 -1.29731 0.998561 14.5234 12.2546 -0.0 0.0 -0.0 2.38899 2.66417 -4.39148 -25.2014 12.0785 -63.4536 2.17332 47.1065 -0.947482 3.55183 -0.111532 0.43989 0.61854 1.96179 -3.32237 0.0 0.0 0.0 -2.89123 -4.17415 -11.8848 -4.36267 0.154879 0.651464 27.4241 23.8926 -3.78021 -30.6721 0.0 0.0 -0.0 0.0 -0.0 9.7785 9.46332 -12.0415 -7.24382 -0.229766 -1.08723 7.78463 -1.30253 1.12243 -1.95813 0.0 0.0 0.0 0.0 0.0 
